<?xml version="1.0" encoding="UTF-8"?><svg id="_イヤー_2" xmlns="http://www.w3.org/2000/svg" viewBox="0 0 196.09 59.5"><defs><style>.cls-1{fill:#fff;}</style></defs><g id="_イヤー_1-2"><g><path class="cls-1" d="M.03,39.84l2.14,.02H6.47l2.15-.03h2.15l2.15,.04,2.15-.03,2.15,.02h4.31v-.03h4.09l2.05-.02h4.09v-2.24l.02-2.26v-4.52h-.05v-4.17l.03-2.09v-2.09l-.02-2.09,.02-2.09-.02-2.09,.03-2.09v-4.18l-.02-2.09h-4.43l-2.22,.02-2.22-.03-2.22,.03-2.22-.02h-2.05l-2.05,.03-2.05-.02H4.12l-2.05,.02H.04l-.02,2.17,.03,2.19v8.75L0,23.15l.03,2.19h0v3.04L0,30.68v2.29l.02,2.29v4.58ZM.02,3.42H2.14l2.11-.02,2.12,.03h2.11l2.12-.02,2.11,.02h4.23l2.12-.02h2.12l2.12,.02h4.23l2.12-.03,2.12,.02,.02-1.7-.03-1.69h-2.1L27.54,0l-2.12,.02h-6.35l-2.12-.02-2.12,.02h-4.23L8.5,0l-2.12,.03h-2.12L2.14,0H.02V3.42ZM27.53,50.98l-2.12-.02h-2.12l-2.12,.03-2.12-.02h-4.23l-2.12,.02h-2.11l-2.12-.03H2.14l-2.11,.02,.02,1.69-.02,1.7,2.12-.02,2.12,.02h4.23l2.12-.02h4.23l2.12,.03h4.23l2.12-.03,2.11,.03,2.12-.02h4.23v-3.39l-2.12,.02h-2.12Zm0,6.35l-2.12-.02h-4.23l-2.12,.02H10.6l-2.12-.02h-2.11l-2.12,.03H2.14l-2.12-.02,.02,2.09H2.14l2.12,.02,2.12,.02,2.12-.03,2.12,.02h2.12l2.12-.02h8.46l2.11,.03h4.23l2.1-.03v-2.08h-4.23ZM2.14,47.98l2.12,.02,2.12,.02,2.12-.02h2.12l2.12,.02h6.35l2.12-.04,2.12,.02h4.23l2.11-.02,2.12,.02v-4.37l-2.12-.03h-2.12l-2.12,.03-2.12-.02-2.12,.03-2.12-.03-2.12,.02-2.12-.02-2.12,.02h-2.11l-2.12-.02H2.14l-2.1,.02-.03,2.17,.03,2.17H2.14Z"/><g><g><polygon class="cls-1" points="62.85 59.41 66.32 59.41 56.33 40.03 66.32 28.96 63.15 28.96 52.9 40.03 62.85 59.41"/><rect class="cls-1" x="46.7" y="28.96" width="2.94" height="30.45"/><path class="cls-1" d="M91.93,59.5h3.19l-11.71-30.62-11.78,30.62h3.08l3.56-9.22h10.09l3.58,9.22Zm-12.67-11.8l4.04-10.46,4.05,10.46h-8.09Z"/><path class="cls-1" d="M141.19,59.5h3.19l-11.71-30.62-11.78,30.62h3.08l3.56-9.22h10.09l3.58,9.22Zm-12.67-11.8l4.04-10.46,4.05,10.46h-8.09Z"/><path class="cls-1" d="M112.55,44.85c-.86-.71-1.82-1.42-2.84-2.12-1.02-.7-1.98-1.32-2.85-1.86-.89-.55-1.64-1.25-2.24-2.08-.61-.84-.92-1.79-.92-2.81,0-1.33,.47-2.43,1.4-3.25,.92-.82,2.12-1.23,3.55-1.23,1.87,0,3.7,.74,5.44,2.21v-2.88c-1.77-1.22-3.65-1.83-5.58-1.83-2.05,0-3.82,.67-5.24,1.98-1.42,1.31-2.15,3.04-2.15,5.15,0,1.1,.21,2.11,.63,3.01,.42,.9,.97,1.67,1.64,2.29,.68,.63,1.46,1.24,2.29,1.79,.85,.57,1.69,1.12,2.52,1.66,.84,.54,1.62,1.11,2.31,1.68,.71,.58,1.3,1.29,1.73,2.11,.44,.83,.67,1.75,.67,2.73,0,1.5-.45,2.74-1.34,3.68-.89,.95-2.1,1.43-3.58,1.43-1.37,0-2.75-.34-4.12-1.02-1.21-.6-2.3-1.39-3.24-2.35v3.31c2.32,1.94,4.83,2.93,7.46,2.93,2.05,0,3.83-.71,5.28-2.11,1.45-1.4,2.19-3.29,2.19-5.61,0-1.47-.29-2.81-.87-3.98-.58-1.18-1.3-2.13-2.14-2.82"/><polygon class="cls-1" points="169.51 51.2 150.28 28.95 150.28 59.42 153.22 59.42 153.22 36.83 172.45 59.35 172.45 28.97 169.51 28.97 169.51 51.2"/><polygon class="cls-1" points="195.53 56.65 184.07 56.65 184.07 42.71 194.3 42.71 193.74 39.83 184.07 39.83 184.07 31.8 196.09 31.8 195.53 28.96 181.13 28.96 181.13 59.41 196.09 59.41 195.53 56.65"/></g><g><polygon class="cls-1" points="85.3 4.86 84.71 6.36 83.19 10.28 81.12 4.98 79.06 10.28 77.54 6.36 77.54 6.36 76.95 4.86 75.71 4.86 77.72 10.03 79.06 13.46 81.12 8.16 83.19 13.46 85.25 8.17 86.54 4.86 85.3 4.86"/><rect class="cls-1" x="171.78" width="1.29" height="13.38"/><rect class="cls-1" x="155.77" width="1.29" height="13.38"/><path class="cls-1" d="M51.93,6.98c-.38-.31-.8-.62-1.25-.93-.45-.31-.87-.58-1.25-.82-.39-.24-.72-.55-.99-.91-.27-.37-.41-.79-.41-1.23,0-.59,.21-1.07,.62-1.43,.41-.36,.93-.54,1.56-.54,.82,0,1.63,.33,2.39,.97V.82c-.78-.53-1.6-.8-2.45-.8-.9,0-1.68,.29-2.3,.87-.63,.58-.94,1.34-.94,2.26,0,.48,.09,.93,.28,1.32,.18,.39,.43,.73,.72,1,.3,.28,.64,.54,1.01,.79,.37,.25,.74,.49,1.11,.73,.37,.24,.71,.49,1.02,.74,.31,.26,.57,.57,.76,.93,.19,.36,.29,.77,.29,1.2,0,.66-.2,1.2-.59,1.62-.39,.42-.92,.63-1.57,.63-.6,0-1.21-.15-1.81-.45-.53-.26-1.01-.61-1.42-1.03v1.45c1.02,.85,2.12,1.29,3.28,1.29,.9,0,1.68-.31,2.32-.93,.64-.61,.96-1.44,.96-2.46,0-.64-.13-1.23-.38-1.75-.25-.52-.57-.93-.94-1.24"/><path class="cls-1" d="M70.06,13.49c-2.38,0-4.32-1.94-4.32-4.32s1.94-4.32,4.32-4.32,4.32,1.94,4.32,4.32-1.94,4.32-4.32,4.32Zm0-7.48c-1.74,0-3.16,1.42-3.16,3.16s1.42,3.16,3.16,3.16,3.16-1.42,3.16-3.16-1.42-3.16-3.16-3.16Z"/><path class="cls-1" d="M147.96,13.49c-2.38,0-4.32-1.94-4.32-4.32s1.94-4.32,4.32-4.32,4.32,1.94,4.32,4.32-1.94,4.32-4.32,4.32Zm0-7.48c-1.74,0-3.16,1.42-3.16,3.16s1.42,3.16,3.16,3.16,3.16-1.42,3.16-3.16-1.42-3.16-3.16-3.16Z"/><path class="cls-1" d="M61.61,5.13c-1.37-.56-2.79-.18-3.7,.54-.23,.18-.45,.41-.64,.67V0h-1.29V13.38h1.29v-4.21c0-2.36,1.89-3.43,3.3-3.07,1.27,.32,1.59,1.33,1.59,3.07v4.21h1.29v-4.8c0-1.07-.17-2.76-1.84-3.44Z"/><path class="cls-1" d="M96.03,11.54c-.75,.44-2.1,.85-3.51,.79-.87-.04-1.65-.29-2.25-.75-.77-.58-1.16-1.4-1.16-2.41s.39-1.83,1.16-2.41c.6-.46,1.38-.71,2.25-.75,1.42-.06,2.76,.35,3.51,.79v-1.29c-.93-.41-2.22-.71-3.56-.66-1.11,.04-2.11,.39-2.9,.98-1.06,.8-1.61,1.95-1.61,3.33s.56,2.53,1.61,3.33c.79,.6,1.79,.94,2.9,.98,.11,0,.21,0,.32,0,1.23,0,2.39-.29,3.25-.66v-1.29Z"/><path class="cls-1" d="M113.13,9.2c-.21-.17-1.05-.68-1.38-.89-.38-.24-.88-.61-.93-1.22-.06-.62,.37-1.27,1.21-1.29,.48-.01,.83,.14,1.23,.34,.13,.07,.32,.18,.5,.29v-1.02l-.21-.12c-.48-.29-.99-.44-1.51-.44-.62,0-1.17,.21-1.61,.61-.44,.4-.67,.96-.67,1.6,0,.34,.07,.65,.2,.93,.13,.28,.3,.51,.51,.71,.2,.18,.42,.35,.65,.51,.23,.15,.46,.31,.69,.45,.22,.14,.42,.29,.6,.44,.16,.13,.3,.3,.4,.49,.1,.18,.15,.39,.15,.61,0,.34-.09,.6-.29,.81-.19,.2-.44,.3-.77,.3s-.85-.13-1.38-.41c-.23-.12-.46-.26-.66-.39v1.27l.02,.02c.16,.11,.34,.21,.52,.3,.49,.24,1,.37,1.51,.37,.65,0,1.2-.23,1.61-.66,.39-.42,.6-.97,.6-1.6,0-.41-.1-.8-.28-1.16-.17-.32-.41-.61-.69-.84Z"/><path class="cls-1" d="M105.69,4.86v1.52c-.73-.94-1.84-1.53-3.16-1.53-2.38,0-4.32,1.94-4.32,4.32s1.94,4.32,4.32,4.32c1.32,0,2.43-.6,3.16-1.53v1.47h1.16V4.86h-1.16Zm-3.16,7.47c-1.74,0-3.16-1.42-3.16-3.16s1.42-3.16,3.16-3.16,3.16,1.42,3.16,3.16-1.42,3.16-3.16,3.16Z"/><polygon class="cls-1" points="140.06 13.42 141.36 13.42 141.36 0 140.06 0 140.06 4.8 134.42 4.8 134.42 0 133.12 0 133.12 13.42 134.42 13.42 134.42 6.11 140.06 6.11 140.06 13.42"/><rect class="cls-1" x="153.6" y="4.8" width="5.64" height="1.3"/><path class="cls-1" d="M123.15,10.94c-.11,.17-.24,.33-.39,.47-.14,.14-.3,.27-.47,.39-.17,.11-.35,.21-.54,.29-.19,.08-.39,.14-.59,.18-.42,.09-.86,.09-1.28,0-.2-.04-.4-.1-.59-.18-.19-.08-.37-.18-.54-.29-.17-.11-.33-.24-.47-.39-.14-.14-.27-.3-.39-.47-.11-.17-.21-.35-.29-.54-.08-.19-.14-.39-.18-.59-.04-.21-.06-.42-.06-.64,0-.06,0-.12,0-.18h7.47c-.09-2.3-1.98-4.14-4.31-4.14-1.58,0-2.97,.86-3.72,2.13-.03,.04-.06,.09-.08,.13-.02,.04-.04,.09-.07,.14-.04,.08-.08,.16-.11,.24-.11,.26-.2,.53-.25,.81-.03,.14-.05,.29-.07,.43-.01,.14-.02,.29-.02,.44,0,.06,0,.11,0,.17,0,.09,0,.18,.01,.27,.01,.15,.04,.29,.07,.43,.06,.28,.14,.55,.25,.81,.11,.26,.24,.5,.4,.73,.15,.23,.33,.44,.53,.64,.2,.2,.41,.37,.64,.53,.23,.16,.48,.29,.73,.4,.26,.11,.53,.19,.81,.25,.14,.03,.29,.05,.43,.07,.12,.01,.25,.02,.38,.02,.02,0,.04,0,.06,0,.15,0,.29,0,.44-.02,.12-.01,.23-.03,.34-.05,.08-.01,.16-.03,.23-.05,.23-.05,.45-.12,.67-.21,.18-.08,.35-.17,.52-.27,.79-.47,1.42-1.18,1.78-2.03h-1.3s-.03,.06-.05,.09Zm-5.24-3.53c.11-.17,.24-.33,.39-.47,.14-.14,.3-.27,.47-.39,.17-.11,.35-.21,.54-.29,.19-.08,.39-.14,.59-.18,.42-.09,.86-.09,1.28,0,.2,.04,.4,.1,.59,.18,.19,.08,.37,.18,.54,.29,.17,.11,.32,.24,.47,.39,.14,.14,.27,.3,.39,.47,.09,.14,.18,.28,.25,.44h-5.74c.07-.15,.15-.3,.25-.44Z"/><path class="cls-1" d="M167.64,10.94c-.11,.17-.24,.33-.39,.47-.14,.14-.3,.27-.47,.39-.17,.11-.35,.21-.54,.29-.19,.08-.39,.14-.59,.18-.42,.09-.86,.09-1.28,0-.2-.04-.4-.1-.59-.18-.19-.08-.37-.18-.54-.29-.17-.11-.33-.24-.47-.39-.14-.14-.27-.3-.39-.47-.11-.17-.21-.35-.29-.54-.08-.19-.14-.39-.18-.59-.04-.21-.06-.42-.06-.64,0-.06,0-.12,0-.18h7.47c-.09-2.3-1.98-4.14-4.31-4.14-1.58,0-2.97,.86-3.72,2.13-.03,.04-.06,.09-.08,.13-.02,.04-.04,.09-.07,.14-.04,.08-.08,.16-.11,.24-.11,.26-.2,.53-.25,.81-.03,.14-.05,.29-.07,.43-.01,.14-.02,.29-.02,.44,0,.06,0,.11,0,.17,0,.09,0,.18,.01,.27,.01,.15,.04,.29,.07,.43,.06,.28,.14,.55,.25,.81,.11,.26,.24,.5,.4,.73,.15,.23,.33,.44,.53,.64,.2,.2,.41,.37,.64,.53,.23,.16,.48,.29,.73,.4,.26,.11,.53,.19,.81,.25,.14,.03,.29,.05,.43,.07,.12,.01,.25,.02,.38,.02,.02,0,.04,0,.06,0,.15,0,.29,0,.44-.02,.12-.01,.23-.03,.34-.05,.08-.01,.16-.03,.23-.05,.23-.05,.45-.12,.67-.21,.18-.08,.35-.17,.52-.27,.79-.47,1.42-1.18,1.78-2.03h-1.3s-.03,.06-.05,.09Zm-5.24-3.53c.11-.17,.24-.33,.39-.47,.14-.14,.3-.27,.47-.39,.17-.11,.35-.21,.54-.29,.19-.08,.39-.14,.59-.18,.42-.09,.86-.09,1.28,0,.2,.04,.4,.1,.59,.18,.19,.08,.37,.18,.54,.29,.17,.11,.32,.24,.47,.39,.14,.14,.27,.3,.39,.47,.09,.14,.18,.28,.25,.44h-5.74c.07-.15,.15-.3,.25-.44Z"/></g></g></g></g></svg>