<?xml version="1.0" encoding="UTF-8"?><svg id="_イヤー_2" xmlns="http://www.w3.org/2000/svg" viewBox="0 0 50.61 94.64"><defs><style>.cls-1{fill:#d9d9d9;}</style></defs><g id="_イヤー_1-2"><path class="cls-1" d="M.05,63.43l3.4,.04h6.85l3.42-.04,3.42,.02,3.42,.04,3.42-.05,3.43,.03,3.43-.02,3.43,.03v-.05h3.26l3.26,.02,3.26-.04h6.51v-3.57l.03-3.59-.02-3.6v-3.6h-.07v-6.64l.05-3.32v-3.32l-.03-3.32,.03-3.32-.04-3.32,.06-3.32-.02-3.32,.02-3.33-.04-3.33-3.53,.02h-7.05l-3.53-.04-3.53,.05-3.53-.04h-3.26l-3.26,.05-3.26-.04h-6.51l-3.26,.02h-3.26l-3.26,.02-3.24-.02-.04,3.46,.04,3.48-.02,3.48v6.96l.02,3.48-.06,3.49,.05,3.49h0l-.02,4.84L0,48.84v3.65l.02,3.65-.02,3.65,.04,3.64ZM.04,5.44H3.41l3.36-.03,3.37,.04h3.37l3.37-.04,3.37,.03h3.37l3.37-.02h3.37l3.37-.02,3.37,.04h3.37l3.37,.02,3.38-.06,3.37,.03,.03-2.7-.04-2.68h-3.35l-3.36-.04-3.37,.03-3.37-.02-3.37,.04h-3.37l-3.37-.04-3.37,.03h-6.74l-3.37-.04-3.37,.05h-3.37L3.41,0H.03V5.44ZM43.83,81.16l-3.37-.04h-3.37l-3.37,.04-3.37-.03h-6.74l-3.37,.04-3.37-.02-3.37-.02h-3.37l-3.37,.02H.04l.03,2.7-.04,2.7,3.38-.03,3.38,.04h6.74l3.37-.03h6.74l3.37,.05h6.74l3.37-.06,3.37,.05,3.37-.03h6.73v-5.4l-3.38,.03-3.38-.02Zm0,10.12l-3.37-.03-3.37,.02H16.87l-3.37-.02h-3.37l-3.37,.05H3.41l-3.38-.03,.03,3.32H3.41l3.38,.03,3.37,.03,3.37-.05,3.37,.03h3.37l3.37-.03,3.37-.02h10.1l3.37,.06h6.73l3.35-.05,.02-3.31h-6.75ZM3.41,76.38l3.38,.03,3.37,.03,3.37-.04,3.37-.02,3.37,.05h10.11l3.37-.06,3.37,.04h6.73l3.36-.03,3.37,.03,.02-3.49-.04-3.47-3.36-.04-3.38,.02-3.37,.03-3.37-.04-3.37,.05-3.37-.04-3.37,.03-3.37-.02-3.37,.03h-3.37l-3.37-.03-3.37,.02H3.41l-3.34,.02-.05,3.46,.05,3.46H3.41Z"/></g></svg>