<?xml version="1.0" encoding="UTF-8"?><svg id="_イヤー_2" xmlns="http://www.w3.org/2000/svg" viewBox="0 0 363.63 144.83"><defs><style>.cls-1{fill:#fff;}</style></defs><g id="_イヤー_1-2"><g><g><polygon class="cls-1" points="39.31 144.62 47.77 144.62 23.45 97.44 47.77 70.49 40.04 70.49 15.1 97.44 39.31 144.62"/><rect class="cls-1" x="0" y="70.49" width="7.16" height="74.13"/><path class="cls-1" d="M110.1,144.83h7.76l-28.5-74.54-28.67,74.54h7.49l8.66-22.44h24.56l8.7,22.44Zm-30.84-28.73l9.83-25.45,9.87,25.45h-19.7Z"/><path class="cls-1" d="M230.01,144.83h7.76l-28.5-74.54-28.67,74.54h7.49l8.66-22.44h24.56l8.7,22.44Zm-30.84-28.73l9.83-25.45,9.87,25.45h-19.7Z"/><path class="cls-1" d="M160.3,109.17c-2.1-1.72-4.42-3.45-6.91-5.15-2.48-1.69-4.82-3.22-6.93-4.54-2.16-1.34-3.99-3.05-5.46-5.07-1.49-2.05-2.25-4.35-2.25-6.84,0-3.24,1.15-5.9,3.42-7.91,2.25-1.99,5.16-3,8.65-3,4.56,0,9.01,1.81,13.25,5.39v-7.02c-4.3-2.96-8.88-4.46-13.59-4.46-4.99,0-9.29,1.63-12.77,4.83-3.47,3.19-5.23,7.41-5.23,12.53,0,2.68,.51,5.14,1.52,7.32,1.01,2.18,2.36,4.06,4,5.57,1.67,1.54,3.54,3.01,5.57,4.37,2.06,1.38,4.1,2.73,6.13,4.05,2.04,1.32,3.93,2.7,5.63,4.08,1.73,1.41,3.15,3.14,4.22,5.14,1.08,2.01,1.62,4.25,1.62,6.65,0,3.64-1.1,6.66-3.26,8.96-2.17,2.31-5.1,3.48-8.72,3.48-3.33,0-6.7-.83-10.03-2.48-2.96-1.46-5.6-3.39-7.88-5.72v8.06c5.65,4.73,11.76,7.13,18.16,7.13,4.99,0,9.31-1.73,12.84-5.14,3.53-3.4,5.32-8,5.32-13.66,0-3.57-.71-6.83-2.11-9.7-1.4-2.86-3.16-5.17-5.21-6.86"/><polygon class="cls-1" points="298.94 124.64 252.14 70.47 252.14 144.64 259.29 144.64 259.29 89.64 306.1 144.46 306.1 70.5 298.94 70.5 298.94 124.64"/><polygon class="cls-1" points="362.26 137.89 334.38 137.89 334.38 103.96 359.28 103.96 357.92 96.95 334.38 96.95 334.38 77.41 363.63 77.41 362.26 70.49 327.22 70.49 327.22 144.62 363.63 144.62 362.26 137.89"/></g><g><polygon class="cls-1" points="120.09 11.84 118.67 15.48 114.96 25.02 109.93 12.11 104.91 25.02 101.2 15.48 101.2 15.48 99.78 11.84 96.76 11.84 101.66 24.41 104.91 32.77 109.93 19.87 114.96 32.77 119.97 19.88 123.1 11.84 120.09 11.84"/><rect class="cls-1" x="330.6" width="3.14" height="32.56"/><rect class="cls-1" x="291.64" width="3.14" height="32.56"/><path class="cls-1" d="M38.88,16.99c-.92-.76-1.94-1.52-3.04-2.26-1.09-.74-2.12-1.41-3.04-1.99-.95-.59-1.75-1.34-2.4-2.23-.66-.9-.99-1.91-.99-3.01,0-1.42,.5-2.59,1.5-3.47,.99-.87,2.27-1.32,3.8-1.32,2,0,3.96,.8,5.82,2.37V2c-1.89-1.3-3.9-1.96-5.97-1.96-2.19,0-4.08,.71-5.61,2.12-1.52,1.4-2.3,3.25-2.3,5.5,0,1.18,.23,2.26,.67,3.21,.44,.96,1.04,1.78,1.76,2.45,.73,.68,1.56,1.32,2.45,1.92,.9,.61,1.8,1.2,2.69,1.78,.9,.58,1.73,1.18,2.47,1.79,.76,.62,1.38,1.38,1.85,2.26,.47,.88,.71,1.87,.71,2.92,0,1.6-.48,2.92-1.43,3.93-.95,1.01-2.24,1.53-3.83,1.53-1.46,0-2.95-.37-4.4-1.09-1.3-.64-2.46-1.49-3.46-2.51v3.54c2.48,2.08,5.17,3.13,7.98,3.13,2.19,0,4.09-.76,5.64-2.26,1.55-1.49,2.34-3.51,2.34-6,0-1.57-.31-3-.93-4.26-.62-1.26-1.39-2.27-2.29-3.02"/><path class="cls-1" d="M82.99,32.83c-5.8,0-10.51-4.71-10.51-10.51s4.71-10.51,10.51-10.51,10.51,4.71,10.51,10.51-4.71,10.51-10.51,10.51Zm0-18.21c-4.24,0-7.7,3.45-7.7,7.7s3.45,7.7,7.7,7.7,7.7-3.45,7.7-7.7-3.45-7.7-7.7-7.7Z"/><path class="cls-1" d="M272.63,32.83c-5.79,0-10.51-4.71-10.51-10.51s4.71-10.51,10.51-10.51,10.51,4.71,10.51,10.51-4.71,10.51-10.51,10.51Zm0-18.21c-4.24,0-7.7,3.45-7.7,7.7s3.45,7.7,7.7,7.7,7.7-3.45,7.7-7.7-3.45-7.7-7.7-7.7Z"/><path class="cls-1" d="M62.43,12.49c-3.33-1.36-6.79-.43-9.01,1.32-.56,.45-1.09,1.01-1.55,1.64V0h-3.14V32.56h3.14v-10.24c0-5.74,4.61-8.34,8.03-7.48,3.1,.77,3.87,3.24,3.87,7.48v10.24h3.14v-11.69c0-2.6-.42-6.72-4.48-8.38Z"/><path class="cls-1" d="M146.23,28.09c-1.83,1.07-5.1,2.07-8.55,1.93-2.12-.09-4.02-.72-5.48-1.83-1.87-1.42-2.82-3.4-2.82-5.87s.95-4.45,2.82-5.87c1.46-1.11,3.35-1.74,5.48-1.83,3.45-.14,6.72,.86,8.55,1.93v-3.14c-2.27-.99-5.4-1.74-8.67-1.6-2.7,.11-5.15,.94-7.07,2.4-2.57,1.95-3.93,4.76-3.93,8.11s1.36,6.16,3.93,8.11c1.92,1.46,4.36,2.29,7.06,2.4,.26,.01,.51,.02,.77,.02,2.99,0,5.81-.7,7.9-1.61v-3.14Z"/><path class="cls-1" d="M187.85,22.4c-.52-.42-2.55-1.66-3.35-2.18-.92-.59-2.13-1.49-2.27-2.97-.14-1.5,.9-3.09,2.95-3.14,1.18-.03,2.02,.34,2.99,.83,.32,.16,.78,.44,1.21,.7v-2.48l-.52-.3c-1.17-.71-2.4-1.07-3.67-1.07-1.51,0-2.86,.51-3.92,1.49-1.07,.98-1.63,2.33-1.63,3.89,0,.83,.16,1.59,.48,2.27,.31,.67,.73,1.25,1.24,1.72,.48,.44,1.01,.86,1.59,1.25,.56,.38,1.12,.74,1.67,1.1,.53,.35,1.03,.7,1.47,1.06,.4,.33,.73,.73,.98,1.19,.24,.45,.36,.94,.36,1.49,0,.82-.23,1.47-.7,1.97-.46,.49-1.07,.73-1.87,.73s-2.08-.32-3.37-1c-.56-.3-1.12-.64-1.61-.95v3.1l.05,.04c.4,.27,.82,.52,1.25,.74,1.2,.59,2.43,.89,3.67,.89,1.57,0,2.93-.56,3.92-1.62,.96-1.02,1.46-2.36,1.46-3.89,0-1.01-.23-1.96-.69-2.81-.42-.79-.99-1.48-1.68-2.04Z"/><path class="cls-1" d="M169.74,11.84v3.71c-1.78-2.28-4.48-3.74-7.7-3.74-5.79,0-10.51,4.71-10.51,10.51s4.71,10.51,10.51,10.51c3.21,0,5.92-1.45,7.7-3.74v3.58h2.81V11.84h-2.81Zm-7.7,18.18c-4.24,0-7.7-3.45-7.7-7.7s3.45-7.7,7.7-7.7,7.7,3.45,7.7,7.7-3.45,7.7-7.7,7.7Z"/><polygon class="cls-1" points="253.39 32.67 256.55 32.67 256.55 0 253.39 0 253.39 11.69 239.65 11.69 239.65 0 236.5 0 236.5 32.67 239.65 32.67 239.65 14.86 253.39 14.86 253.39 32.67"/><rect class="cls-1" x="286.34" y="11.69" width="13.74" height="3.17"/><path class="cls-1" d="M212.23,26.62c-.28,.41-.59,.79-.94,1.14-.35,.35-.73,.67-1.14,.94-.41,.28-.85,.52-1.31,.71-.47,.2-.95,.35-1.44,.45-1.02,.21-2.09,.21-3.11,0-.49-.1-.98-.25-1.44-.45-.46-.19-.9-.43-1.31-.71-.41-.28-.79-.59-1.14-.94-.35-.35-.67-.73-.94-1.14-.28-.41-.52-.85-.71-1.31-.2-.46-.35-.95-.45-1.44-.1-.51-.16-1.03-.16-1.55,0-.14,0-.29,.01-.43h18.17c-.23-5.6-4.83-10.08-10.49-10.08-3.86,0-7.22,2.08-9.05,5.18-.06,.11-.13,.21-.19,.32-.06,.11-.11,.22-.16,.34-.1,.19-.2,.38-.28,.58-.27,.63-.47,1.3-.61,1.98-.07,.35-.12,.7-.16,1.05-.04,.35-.05,.71-.05,1.07,0,.13,.02,.27,.02,.4,0,.22,.01,.44,.03,.66,.04,.35,.09,.7,.16,1.05,.14,.68,.34,1.34,.61,1.98,.26,.62,.59,1.22,.97,1.79,.38,.56,.81,1.08,1.28,1.56,.48,.48,1,.91,1.55,1.28,.56,.38,1.16,.71,1.79,.97,.64,.27,1.3,.47,1.97,.61,.35,.07,.7,.12,1.05,.16,.3,.03,.61,.04,.92,.05,.05,0,.1,0,.15,0,.36,0,.72-.02,1.07-.05,.28-.03,.56-.08,.83-.13,.19-.04,.38-.08,.57-.12,.55-.13,1.1-.3,1.62-.52,.44-.18,.85-.41,1.26-.65,1.92-1.14,3.45-2.87,4.33-4.94h-3.17c-.04,.07-.08,.14-.13,.21Zm-12.77-8.6c.28-.41,.59-.79,.94-1.14,.35-.35,.73-.67,1.14-.94,.41-.28,.85-.52,1.31-.71,.46-.2,.95-.35,1.44-.45,1.01-.21,2.09-.21,3.11,0,.49,.1,.98,.25,1.44,.45,.45,.19,.89,.43,1.31,.71,.41,.27,.79,.59,1.14,.94,.35,.35,.66,.73,.94,1.14,.23,.34,.43,.69,.6,1.06h-13.97c.17-.37,.37-.72,.6-1.06Z"/><path class="cls-1" d="M320.51,26.62c-.28,.41-.59,.79-.94,1.14-.35,.35-.73,.67-1.14,.94-.41,.28-.85,.52-1.31,.71-.47,.2-.95,.35-1.44,.45-1.02,.21-2.09,.21-3.11,0-.49-.1-.98-.25-1.44-.45-.46-.19-.9-.43-1.31-.71-.41-.28-.79-.59-1.14-.94-.35-.35-.67-.73-.94-1.14-.28-.41-.52-.85-.71-1.31-.2-.46-.35-.95-.45-1.44-.1-.51-.16-1.03-.16-1.55,0-.14,0-.29,.01-.43h18.17c-.23-5.6-4.83-10.08-10.49-10.08-3.86,0-7.22,2.08-9.05,5.18-.06,.11-.13,.21-.19,.32-.06,.11-.11,.22-.16,.34-.1,.19-.2,.38-.28,.58-.27,.63-.47,1.3-.61,1.98-.07,.35-.12,.7-.16,1.05-.04,.35-.05,.71-.05,1.07,0,.13,.02,.27,.02,.4,0,.22,.01,.44,.03,.66,.04,.35,.09,.7,.16,1.05,.14,.68,.34,1.34,.61,1.98,.26,.62,.59,1.22,.97,1.79,.38,.56,.81,1.08,1.28,1.56,.48,.48,1,.91,1.55,1.28,.56,.38,1.16,.71,1.79,.97,.64,.27,1.3,.47,1.97,.61,.35,.07,.7,.12,1.05,.16,.3,.03,.61,.04,.92,.05,.05,0,.1,0,.15,0,.36,0,.72-.02,1.07-.05,.28-.03,.56-.08,.83-.13,.19-.04,.38-.08,.57-.12,.55-.13,1.1-.3,1.62-.52,.44-.18,.85-.41,1.26-.65,1.92-1.14,3.45-2.87,4.33-4.94h-3.17c-.04,.07-.08,.14-.13,.21Zm-12.77-8.6c.28-.41,.59-.79,.94-1.14,.35-.35,.73-.67,1.14-.94,.41-.28,.85-.52,1.31-.71,.46-.2,.95-.35,1.44-.45,1.01-.21,2.09-.21,3.11,0,.49,.1,.98,.25,1.44,.45,.45,.19,.89,.43,1.31,.71,.41,.27,.79,.59,1.14,.94,.35,.35,.66,.73,.94,1.14,.23,.34,.43,.69,.6,1.06h-13.97c.17-.37,.37-.72,.6-1.06Z"/></g></g></g></svg>